{
  "accessors": [
    {
      "bufferView": 0,
      "componentType": 5125,
      "count": 52884,
      "type": "SCALAR"
    },
    {
      "bufferView": 1,
      "componentType": 5126,
      "count": 10858,
      "max": [
        0.4896602014253578,
        0.42028523011494445,
        -0.03893357905050086
      ],
      "min": [
        0.2675638795739014,
        0.0728044318013068,
        -0.06981307913300282
      ],
      "type": "VEC3"
    },
    {
      "bufferView": 2,
      "componentType": 5126,
      "count": 10858,
      "max": [
        0.9999868138077395,
        0.9999995172996566,
        0.9999986836254351
      ],
      "min": [
        -0.9999999493505767,
        -0.999918438002708,
        -1.0
      ],
      "type": "VEC3"
    },
    {
      "bufferView": 3,
      "componentType": 5126,
      "count": 10858,
      "max": [
        0.8391769964906133,
        1.0
      ],
      "min": [
        0.0,
        0.0
      ],
      "type": "VEC2"
    },
    {
      "bufferView": 4,
      "componentType": 5125,
      "count": 48762,
      "type": "SCALAR"
    },
    {
      "bufferView": 5,
      "componentType": 5126,
      "count": 10003,
      "max": [
        0.31161288703976153,
        0.498718023830637,
        -0.04014102347768299
      ],
      "min": [
        0.11792746463949821,
        0.17016771043389634,
        -0.06981307913300282
      ],
      "type": "VEC3"
    },
    {
      "bufferView": 6,
      "componentType": 5126,
      "count": 10003,
      "max": [
        0.9999898826840928,
        0.9999860189639082,
        0.9999995275287099
      ],
      "min": [
        -0.9999998697947557,
        -0.9999601223554093,
        -1.0
      ],
      "type": "VEC3"
    },
    {
      "bufferView": 7,
      "componentType": 5126,
      "count": 10003,
      "max": [
        1.0,
        0.5454857372584947
      ],
      "min": [
        0.0,
        0.0
      ],
      "type": "VEC2"
    },
    {
      "bufferView": 8,
      "componentType": 5125,
      "count": 54864,
      "type": "SCALAR"
    },
    {
      "bufferView": 9,
      "componentType": 5126,
      "count": 11416,
      "max": [
        0.08916686778065575,
        0.568614595287291,
        -0.040215768524463354
      ],
      "min": [
        -0.084285178876644,
        0.299527472747529,
        -0.06981307913300282
      ],
      "type": "VEC3"
    },
    {
      "bufferView": 10,
      "componentType": 5126,
      "count": 11416,
      "max": [
        0.9999998121258972,
        0.9999981098503208,
        0.9999927355625082
      ],
      "min": [
        -0.9999999524404851,
        -0.9999992886161747,
        -1.0
      ],
      "type": "VEC3"
    },
    {
      "bufferView": 11,
      "componentType": 5126,
      "count": 11416,
      "max": [
        0.9995786463760428,
        1.0
      ],
      "min": [
        0.0,
        0.0
      ],
      "type": "VEC2"
    },
    {
      "bufferView": 12,
      "componentType": 5125,
      "count": 55686,
      "type": "SCALAR"
    },
    {
      "bufferView": 13,
      "componentType": 5126,
      "count": 11625,
      "max": [
        -0.28467534538332295,
        0.45546064534258446,
        -0.040327479627023884
      ],
      "min": [
        -0.4896602014253579,
        0.11621380554380112,
        -0.06981307913300282
      ],
      "type": "VEC3"
    },
    {
      "bufferView": 14,
      "componentType": 5126,
      "count": 11625,
      "max": [
        0.9999983657003071,
        0.99999989442039,
        0.999999947414007
      ],
      "min": [
        -0.9999933082198927,
        -0.9999999883201467,
        -1.0
      ],
      "type": "VEC3"
    },
    {
      "bufferView": 15,
      "componentType": 5126,
      "count": 11625,
      "max": [
        0.99848767904332,
        1.0
      ],
      "min": [
        0.0,
        0.0
      ],
      "type": "VEC2"
    },
    {
      "bufferView": 16,
      "componentType": 5125,
      "count": 67758,
      "type": "SCALAR"
    },
    {
      "bufferView": 17,
      "componentType": 5126,
      "count": 15022,
      "max": [
        0.265430959016861,
        0.47131748085769476,
        0.06981307913300282
      ],
      "min": [
        -0.28362038215275054,
        -0.5686145952872907,
        -0.06981307913300282
      ],
      "type": "VEC3"
    },
    {
      "bufferView": 18,
      "componentType": 5126,
      "count": 15022,
      "max": [
        0.9999955287450456,
        1.0,
        0.9999883613965236
      ],
      "min": [
        -0.9999974657685197,
        -0.9999941715612912,
        -1.0
      ],
      "type": "VEC3"
    },
    {
      "bufferView": 19,
      "componentType": 5126,
      "count": 15022,
      "max": [
        0.9940067814369189,
        1.0
      ],
      "min": [
        0.0,
        0.0
      ],
      "type": "VEC2"
    }
  ],
  "asset": {
    "generator": "Adobe Illustrator",
    "version": "2.0"
  },
  "bufferViews": [
    {
      "buffer": 0,
      "byteLength": 211536,
      "target": 34963
    },
    {
      "buffer": 0,
      "byteLength": 130296,
      "byteOffset": 211536,
      "target": 34962
    },
    {
      "buffer": 0,
      "byteLength": 130296,
      "byteOffset": 341832,
      "target": 34962
    },
    {
      "buffer": 0,
      "byteLength": 86864,
      "byteOffset": 472128,
      "target": 34962
    },
    {
      "buffer": 0,
      "byteLength": 195048,
      "byteOffset": 558992,
      "target": 34963
    },
    {
      "buffer": 0,
      "byteLength": 120036,
      "byteOffset": 754040,
      "target": 34962
    },
    {
      "buffer": 0,
      "byteLength": 120036,
      "byteOffset": 874076,
      "target": 34962
    },
    {
      "buffer": 0,
      "byteLength": 80024,
      "byteOffset": 994112,
      "target": 34962
    },
    {
      "buffer": 0,
      "byteLength": 219456,
      "byteOffset": 1074136,
      "target": 34963
    },
    {
      "buffer": 0,
      "byteLength": 136992,
      "byteOffset": 1293592,
      "target": 34962
    },
    {
      "buffer": 0,
      "byteLength": 136992,
      "byteOffset": 1430584,
      "target": 34962
    },
    {
      "buffer": 0,
      "byteLength": 91328,
      "byteOffset": 1567576,
      "target": 34962
    },
    {
      "buffer": 0,
      "byteLength": 222744,
      "byteOffset": 1658904,
      "target": 34963
    },
    {
      "buffer": 0,
      "byteLength": 139500,
      "byteOffset": 1881648,
      "target": 34962
    },
    {
      "buffer": 0,
      "byteLength": 139500,
      "byteOffset": 2021148,
      "target": 34962
    },
    {
      "buffer": 0,
      "byteLength": 93000,
      "byteOffset": 2160648,
      "target": 34962
    },
    {
      "buffer": 0,
      "byteLength": 271032,
      "byteOffset": 2253648,
      "target": 34963
    },
    {
      "buffer": 0,
      "byteLength": 180264,
      "byteOffset": 2524680,
      "target": 34962
    },
    {
      "buffer": 0,
      "byteLength": 180264,
      "byteOffset": 2704944,
      "target": 34962
    },
    {
      "buffer": 0,
      "byteLength": 120176,
      "byteOffset": 2885208,
      "target": 34962
    }
  ],
  "buffers": [
    {
      "byteLength": 3005384,
      "uri": "data:application/octet-stream;base64,"
    }
  ],
  "materials": [
    {
      "doubleSided": true,
      "pbrMetallicRoughness": {
        "baseColorFactor": [
          0.92578125,
          0.1132812574505806,
          0.17578125,
          1.0
        ],
        "metallicFactor": 0.0,
        "roughnessFactor": 0.4000000059604645
      }
    },
    {
      "doubleSided": true,
      "pbrMetallicRoughness": {
        "baseColorFactor": [
          0.92578125,
          0.1132812574505806,
          0.17578125,
          1.0
        ],
        "metallicFactor": 0.0,
        "roughnessFactor": 0.4000000059604645
      }
    },
    {
      "doubleSided": true,
      "pbrMetallicRoughness": {
        "baseColorFactor": [
          0.92578125,
          0.1132812574505806,
          0.17578125,
          1.0
        ],
        "metallicFactor": 0.0,
        "roughnessFactor": 0.4000000059604645
      }
    },
    {
      "doubleSided": true,
      "pbrMetallicRoughness": {
        "baseColorFactor": [
          0.92578125,
          0.1132812574505806,
          0.17578125,
          1.0
        ],
        "metallicFactor": 0.0,
        "roughnessFactor": 0.4000000059604645
      }
    },
    {
      "doubleSided": true,
      "pbrMetallicRoughness": {
        "baseColorFactor": [
          0.92578125,
          0.1132812574505806,
          0.17578125,
          1.0
        ],
        "metallicFactor": 0.0,
        "roughnessFactor": 0.4000000059604645
      }
    }
  ],
  "meshes": [
    {
      "primitives": [
        {
          "attributes": {
            "NORMAL": 2,
            "POSITION": 1,
            "TEXCOORD_0": 3
          },
          "indices": 0,
          "material": 0,
          "mode": 4
        }
      ]
    },
    {
      "primitives": [
        {
          "attributes": {
            "NORMAL": 6,
            "POSITION": 5,
            "TEXCOORD_0": 7
          },
          "indices": 4,
          "material": 1,
          "mode": 4
        }
      ]
    },
    {
      "primitives": [
        {
          "attributes": {
            "NORMAL": 10,
            "POSITION": 9,
            "TEXCOORD_0": 11
          },
          "indices": 8,
          "material": 2,
          "mode": 4
        }
      ]
    },
    {
      "primitives": [
        {
          "attributes": {
            "NORMAL": 14,
            "POSITION": 13,
            "TEXCOORD_0": 15
          },
          "indices": 12,
          "material": 3,
          "mode": 4
        }
      ]
    },
    {
      "primitives": [
        {
          "attributes": {
            "NORMAL": 18,
            "POSITION": 17,
            "TEXCOORD_0": 19
          },
          "indices": 16,
          "material": 4,
          "mode": 4
        }
      ]
    }
  ],
  "nodes": [
    {
      "mesh": 0
    },
    {
      "mesh": 1
    },
    {
      "mesh": 2
    },
    {
      "mesh": 3
    },
    {
      "mesh": 4
    }
  ],
  "scenes": [
    {
      "nodes": [
        0,
        1,
        2,
        3,
        4
      ]
    }
  ]
}
